<svg width="150" height="150" viewBox="0 0 150 150" fill="none" xmlns="http://www.w3.org/2000/svg">
<g filter="url(#filter0_n_77_83)">
<circle cx="75" cy="75" r="75" fill="#7ACF63"/>
</g>
<path d="M59.0346 64C59.0346 75.0457 38.0346 100.5 38.0346 117C37.0346 98.5 16.0346 74.5 17.0346 64C17.0346 52.9543 26.9889 44 38.0346 44C49.0803 44 59.0346 52.9543 59.0346 64Z" fill="white"/>
<g filter="url(#filter1_n_77_83)">
<path d="M54.0346 64.4384C54.0346 73.517 38.2228 94.4384 38.2228 108C37.4699 92.7945 21.5346 72.5 21.5346 64.4384C21.5346 55.3597 29.9061 48 38.2228 48C46.5396 48 54.0346 55.3597 54.0346 64.4384Z" fill="#7ACF63"/>
</g>
<circle cx="38.0346" cy="64" r="10" fill="white"/>
<path d="M131.16 45.3983C131.16 52.7979 117.091 69.8501 117.091 80.9037C116.421 68.5103 102.353 52.4324 103.023 45.3983C103.023 37.9986 109.692 32 117.091 32C124.491 32 131.16 37.9986 131.16 45.3983Z" fill="white"/>
<g filter="url(#filter2_n_77_83)">
<path d="M127.81 45.692C127.81 51.7739 117.217 65.7894 117.217 74.8745C116.713 64.6882 106.038 51.0926 106.038 45.692C106.038 39.6101 111.646 34.6797 117.217 34.6797C122.789 34.6797 127.81 39.6101 127.81 45.692Z" fill="#7ACF63"/>
</g>
<circle cx="117.091" cy="45.3984" r="6.69914" fill="white"/>
<path d="M41 117.186C90.9226 141.65 72.5548 81 114 81" stroke="white" stroke-width="2" stroke-dasharray="10 10"/>
<defs>
<filter id="filter0_n_77_83" x="0" y="0" width="150" height="150" filterUnits="userSpaceOnUse" color-interpolation-filters="sRGB">
<feFlood flood-opacity="0" result="BackgroundImageFix"/>
<feBlend mode="normal" in="SourceGraphic" in2="BackgroundImageFix" result="shape"/>
<feTurbulence type="fractalNoise" baseFrequency="2 2" stitchTiles="stitch" numOctaves="3" result="noise" seed="6977" />
<feColorMatrix in="noise" type="luminanceToAlpha" result="alphaNoise" />
<feComponentTransfer in="alphaNoise" result="coloredNoise1">
<feFuncA type="discrete" tableValues="1 1 1 1 1 1 1 1 1 1 1 1 1 1 1 1 1 1 1 1 1 1 1 1 1 1 1 1 1 1 1 1 1 1 1 1 1 1 1 1 1 1 1 1 1 1 1 1 1 1 1 0 0 0 0 0 0 0 0 0 0 0 0 0 0 0 0 0 0 0 0 0 0 0 0 0 0 0 0 0 0 0 0 0 0 0 0 0 0 0 0 0 0 0 0 0 0 0 0 0 "/>
</feComponentTransfer>
<feComposite operator="in" in2="shape" in="coloredNoise1" result="noise1Clipped" />
<feFlood flood-color="rgba(0, 0, 0, 0.1)" result="color1Flood" />
<feComposite operator="in" in2="noise1Clipped" in="color1Flood" result="color1" />
<feMerge result="effect1_noise_77_83">
<feMergeNode in="shape" />
<feMergeNode in="color1" />
</feMerge>
</filter>
<filter id="filter1_n_77_83" x="21.5346" y="48" width="32.5" height="60" filterUnits="userSpaceOnUse" color-interpolation-filters="sRGB">
<feFlood flood-opacity="0" result="BackgroundImageFix"/>
<feBlend mode="normal" in="SourceGraphic" in2="BackgroundImageFix" result="shape"/>
<feTurbulence type="fractalNoise" baseFrequency="2 2" stitchTiles="stitch" numOctaves="3" result="noise" seed="1146" />
<feColorMatrix in="noise" type="luminanceToAlpha" result="alphaNoise" />
<feComponentTransfer in="alphaNoise" result="coloredNoise1">
<feFuncA type="discrete" tableValues="1 1 1 1 1 1 1 1 1 1 1 1 1 1 1 1 1 1 1 1 1 1 1 1 1 1 1 1 1 1 1 1 1 1 1 1 1 1 1 1 1 1 1 1 1 1 1 1 1 1 1 0 0 0 0 0 0 0 0 0 0 0 0 0 0 0 0 0 0 0 0 0 0 0 0 0 0 0 0 0 0 0 0 0 0 0 0 0 0 0 0 0 0 0 0 0 0 0 0 0 "/>
</feComponentTransfer>
<feComposite operator="in" in2="shape" in="coloredNoise1" result="noise1Clipped" />
<feFlood flood-color="rgba(0, 0, 0, 0.05)" result="color1Flood" />
<feComposite operator="in" in2="noise1Clipped" in="color1Flood" result="color1" />
<feMerge result="effect1_noise_77_83">
<feMergeNode in="shape" />
<feMergeNode in="color1" />
</feMerge>
</filter>
<filter id="filter2_n_77_83" x="106.038" y="34.6797" width="21.7722" height="40.1948" filterUnits="userSpaceOnUse" color-interpolation-filters="sRGB">
<feFlood flood-opacity="0" result="BackgroundImageFix"/>
<feBlend mode="normal" in="SourceGraphic" in2="BackgroundImageFix" result="shape"/>
<feTurbulence type="fractalNoise" baseFrequency="2.9854590892791748 2.9854590892791748" stitchTiles="stitch" numOctaves="3" result="noise" seed="1146" />
<feColorMatrix in="noise" type="luminanceToAlpha" result="alphaNoise" />
<feComponentTransfer in="alphaNoise" result="coloredNoise1">
<feFuncA type="discrete" tableValues="1 1 1 1 1 1 1 1 1 1 1 1 1 1 1 1 1 1 1 1 1 1 1 1 1 1 1 1 1 1 1 1 1 1 1 1 1 1 1 1 1 1 1 1 1 1 1 1 1 1 1 0 0 0 0 0 0 0 0 0 0 0 0 0 0 0 0 0 0 0 0 0 0 0 0 0 0 0 0 0 0 0 0 0 0 0 0 0 0 0 0 0 0 0 0 0 0 0 0 0 "/>
</feComponentTransfer>
<feComposite operator="in" in2="shape" in="coloredNoise1" result="noise1Clipped" />
<feFlood flood-color="rgba(0, 0, 0, 0.05)" result="color1Flood" />
<feComposite operator="in" in2="noise1Clipped" in="color1Flood" result="color1" />
<feMerge result="effect1_noise_77_83">
<feMergeNode in="shape" />
<feMergeNode in="color1" />
</feMerge>
</filter>
</defs>
</svg>
