<svg width="101" height="100" viewBox="0 0 101 100" fill="none" xmlns="http://www.w3.org/2000/svg">
<path d="M100.5 86.1111C100.5 93.7833 94.2833 100 86.6111 100H14.3889C6.71944 100 0.5 93.7833 0.5 86.1111V13.8889C0.5 6.21667 6.71944 0 14.3889 0H86.6111C94.2833 0 100.5 6.21667 100.5 13.8889V86.1111Z" fill="#0077FF"/>
<path d="M80.3438 33.6459C80.4579 33.2621 80.5124 32.9062 80.4975 32.5885C80.4603 31.6685 79.843 31 78.3902 31H71.8998C70.261 31 69.5049 32.0167 69.0636 33.0359C69.0636 33.0359 65.0176 41.5733 60.3543 47.2031C58.842 48.8323 58.0735 48.7917 57.2553 48.7917C56.8165 48.7917 55.7083 48.2477 55.7083 46.7558V33.5772C55.7083 31.8133 55.2794 31 53.8936 31H42.3679C41.3589 31 40.8333 31.8133 40.8333 32.6292C40.8333 34.3245 43.0596 34.7312 43.3125 39.4815V48.69C43.3125 50.9267 42.9332 51.3333 42.1151 51.3333C39.9086 51.3333 35.5651 43.7083 32.657 33.7145C32.0273 31.7473 31.3976 31 29.7589 31H23.2065C21.3149 31 21 31.9506 21 32.9673C21 34.7998 22.4875 44.7072 30.6068 56.099C36.4948 64.3594 44.2521 69.125 51.1194 69.125C55.2794 69.125 55.7059 68.0397 55.7059 66.3444V58.7906C55.7083 56.7547 56.162 56.4167 57.4859 56.4167C58.4305 56.4167 60.3568 57.0521 64.0755 61.5C68.3645 66.6291 69.1429 69.125 71.6023 69.125H78.0927C79.6001 69.125 80.4653 68.4769 80.5 67.2187C80.5074 66.8985 80.4628 66.5401 80.3612 66.1411C79.8802 64.6771 77.6737 61.0984 74.9219 57.6875C73.3972 55.799 71.8923 53.9284 71.2006 52.9117C70.737 52.2483 70.561 51.7807 70.5833 51.3333C70.6056 50.8631 70.8436 50.4158 71.2006 49.7905C71.1362 49.7905 79.5257 37.7151 80.3438 33.6459Z" fill="white"/>
</svg>
